<?xml version="1.0" standalone="no"?>
<!DOCTYPE svg PUBLIC "-//W3C//DTD SVG 20010904//EN"
 "http://www.w3.org/TR/2001/REC-SVG-20010904/DTD/svg10.dtd">
<svg version="1.0" xmlns="http://www.w3.org/2000/svg"
 width="932.000000pt" height="932.000000pt" viewBox="0 0 932.000000 932.000000"
 preserveAspectRatio="xMidYMid meet">
<metadata>
Created by potrace 1.13, written by Peter Selinger 2001-2015
</metadata>
<g transform="translate(0.000000,932.000000) scale(0.100000,-0.100000)"
fill="#000000" stroke="none">
<path d="M0 4660 l0 -4660 4660 0 4660 0 0 4660 0 4660 -4660 0 -4660 0 0
-4660z m5703 2600 l539 0 -413 -420 -412 -420 -191 5 c-105 3 -467 7 -803 10
l-613 5 0 -508 c0 -280 3 -658 7 -840 l6 -332 795 0 795 0 -6 424 -6 424 406
369 c223 202 408 369 413 371 4 1 5 -158 3 -355 -2 -197 -8 -916 -13 -1597
l-10 -1239 -167 -171 c-92 -94 -446 -453 -787 -798 l-619 -628 -805 0 -804 0
398 405 397 405 794 0 793 0 0 483 c0 265 -3 627 -7 805 l-6 322 -794 0 -793
0 0 -387 0 -388 -390 -395 -389 -395 0 1290 c-1 710 -4 1434 -7 1610 l-6 320
343 361 c189 198 540 567 779 819 l435 458 299 -7 c165 -3 542 -6 839 -6z"/>
</g>
</svg>
